<svg version="1.1" xmlns="http://www.w3.org/2000/svg" xmlns:xlink="http://www.w3.org/1999/xlink" width="70" height="17" viewBox="0 0 70 17">
<path id="btn-main-product" d="M67.565,8.014 C67.565,8.014 65.239,8.014 65.239,8.014 L65.239,6.465 C65.239,6.465 66.967,6.465 66.967,6.465 C67.240,6.465 67.377,6.357 67.377,6.123 C67.377,6.123 67.377,2.396 67.377,2.396 L64.777,2.396 C64.777,2.396 64.161,6.411 64.161,6.411 C63.973,7.528 63.511,8.086 62.759,8.086 C62.759,8.086 61.425,8.086 61.425,8.086 L61.425,6.465 C61.425,6.465 62.228,6.465 62.228,6.465 C62.382,6.465 62.519,6.195 62.622,5.655 C62.622,5.655 63.067,2.396 63.067,2.396 L61.356,2.396 L61.356,0.848 L69.105,0.848 C69.105,0.848 69.105,6.609 69.105,6.609 C69.105,7.546 68.592,8.014 67.565,8.014 zM59.492,14.424 C59.492,14.424 58.961,9.706 58.961,9.706 L60.296,9.706 C60.296,9.706 60.826,13.650 60.826,13.650 C60.860,13.974 60.946,14.136 61.100,14.136 C61.100,14.136 61.288,14.136 61.288,14.136 L61.288,15.828 C61.288,15.828 60.364,15.828 60.364,15.828 C59.851,15.828 59.560,15.360 59.492,14.424 zM59.081,7.168 C59.252,7.168 59.355,7.078 59.355,6.898 C59.355,6.898 59.355,5.133 59.355,5.133 L60.757,5.133 C60.757,5.133 60.757,7.600 60.757,7.600 C60.757,7.852 60.655,8.086 60.467,8.338 C60.227,8.644 59.936,8.788 59.629,8.788 C59.629,8.788 58.688,8.788 58.688,8.788 L58.688,16.747 L57.080,16.747 L57.080,8.788 L54.411,8.788 C54.411,8.788 54.411,7.600 54.411,7.600 C54.411,7.402 54.583,7.132 54.925,6.772 C54.925,6.772 56.584,4.719 56.584,4.719 L54.548,4.719 C54.548,4.719 54.548,3.441 54.548,3.441 C54.548,3.333 54.600,3.206 54.702,3.098 C54.702,3.098 56.875,0.272 56.875,0.272 L58.619,0.272 L56.413,3.170 L57.832,3.170 L58.961,1.766 L60.826,1.766 L56.550,7.168 C56.550,7.168 59.081,7.168 59.081,7.168 zM54.736,13.542 C54.736,13.542 55.215,9.634 55.215,9.634 L56.755,9.634 C56.755,9.634 56.105,14.442 56.105,14.442 C55.934,15.540 55.523,16.098 54.873,16.098 C54.873,16.098 54.138,16.098 54.138,16.098 L54.138,14.352 C54.138,14.352 54.411,14.352 54.411,14.352 C54.548,14.352 54.651,14.082 54.736,13.542 zM48.445,4.539 C48.445,4.539 46.973,2.522 46.973,2.522 L40.970,2.522 C40.970,2.522 39.533,4.539 39.533,4.539 C39.259,4.935 38.900,5.133 38.489,5.133 C38.489,5.133 36.351,5.133 36.351,5.133 L36.351,3.297 C36.351,3.297 37.685,3.297 37.685,3.297 C37.925,3.297 38.147,3.098 38.387,2.666 C38.387,2.666 39.635,0.848 39.635,0.848 L48.308,0.848 C48.308,0.848 49.591,2.666 49.591,2.666 C49.830,3.098 50.069,3.297 50.326,3.297 C50.326,3.297 51.523,3.297 51.523,3.297 L51.523,5.133 C51.523,5.133 49.522,5.133 49.522,5.133 C49.077,5.133 48.718,4.935 48.445,4.539 zM31.855,16.026 C31.855,16.026 26.843,16.026 26.843,16.026 L26.843,9.148 L33.207,9.148 C33.207,9.148 33.207,14.838 33.207,14.838 C33.207,15.630 32.745,16.026 31.855,16.026 zM31.325,10.823 L28.657,10.823 L28.657,14.352 C28.657,14.352 30.863,14.352 30.863,14.352 C31.171,14.352 31.325,14.208 31.325,13.920 C31.325,13.920 31.325,10.823 31.325,10.823 zM31.393,7.672 C31.393,7.672 19.711,7.672 19.711,7.672 L19.711,1.190 L32.796,1.190 C32.796,1.190 32.796,6.321 32.796,6.321 C32.796,7.222 32.317,7.672 31.393,7.672 zM30.932,2.954 L21.575,2.954 L21.575,5.907 C21.575,5.907 30.401,5.907 30.401,5.907 C30.743,5.907 30.932,5.745 30.932,5.421 C30.932,5.421 30.932,2.954 30.932,2.954 zM25.441,14.838 C25.441,15.630 24.996,16.026 24.107,16.026 C24.107,16.026 19.095,16.026 19.095,16.026 L19.095,9.148 L25.441,9.148 C25.441,9.148 25.441,14.838 25.441,14.838 zM23.576,10.823 L20.908,10.823 L20.908,14.352 C20.908,14.352 23.115,14.352 23.115,14.352 C23.422,14.352 23.576,14.208 23.576,13.920 C23.576,13.920 23.576,10.823 23.576,10.823 zM3.994,14.910 L9.194,14.910 L9.194,13.776 L4.661,13.776 L4.661,12.371 L9.194,12.371 L9.194,11.183 C9.194,11.183 6.389,11.183 6.389,11.183 C6.166,11.471 5.807,11.597 5.328,11.597 C5.328,11.597 3.994,11.597 3.994,11.597 L3.994,10.193 C3.994,10.193 4.781,10.193 4.781,10.193 C4.883,10.193 4.986,10.121 5.054,9.977 C5.054,9.977 5.448,8.860 5.448,8.860 L7.192,8.860 L6.902,9.778 L9.194,9.778 L9.194,8.644 L11.007,8.644 L11.007,9.778 L14.804,9.778 L14.804,11.183 L11.007,11.183 L11.007,12.371 L15.215,12.371 L15.215,13.776 L11.007,13.776 L11.007,14.910 L15.813,14.910 L15.813,16.314 L3.994,16.314 L3.994,14.910 zM3.378,14.694 C3.378,15.954 2.779,16.602 1.582,16.602 C1.582,16.602 0.573,16.602 0.573,16.602 L0.573,14.982 C0.573,14.982 1.240,14.982 1.240,14.982 C1.462,14.982 1.582,14.820 1.582,14.496 C1.582,14.496 1.582,6.609 1.582,6.609 L15.677,6.609 L15.677,8.158 L3.378,8.158 C3.378,8.158 3.378,14.694 3.378,14.694 zM10.596,5.979 L8.595,5.277 L6.389,5.979 L2.711,5.979 L6.850,4.665 L3.190,3.369 L6.594,3.369 L8.629,4.089 L10.870,3.369 L14.548,3.369 L10.374,4.701 L14.000,5.979 L10.596,5.979 zM1.120,1.406 L7.329,1.406 L7.329,0.416 L9.467,0.416 L9.467,1.406 L15.540,1.406 L15.540,2.810 L1.120,2.810 L1.120,1.406 zM38.489,14.208 C38.489,14.208 38.489,6.267 38.489,6.267 L40.371,6.267 C40.371,6.267 40.371,14.550 40.371,14.550 C40.371,15.630 39.755,16.170 38.558,16.170 C38.558,16.170 36.830,16.170 36.830,16.170 L36.830,14.496 C36.830,14.496 38.096,14.496 38.096,14.496 C38.353,14.496 38.489,14.406 38.489,14.208 zM49.385,16.458 L47.521,16.458 L47.521,6.267 L49.385,6.267 L49.385,16.458 zM68.780,15.054 C68.780,15.792 68.352,16.170 67.514,16.170 C67.514,16.170 61.886,16.170 61.886,16.170 L61.886,9.076 L68.780,9.076 C68.780,9.076 68.780,15.054 68.780,15.054 zM67.103,10.625 L63.494,10.625 L63.494,14.694 C63.494,14.694 66.642,14.694 66.642,14.694 C66.950,14.694 67.103,14.568 67.103,14.280 C67.103,14.280 67.103,10.625 67.103,10.625 z" fill="#ED1C24" />
</svg>
