<svg version="1.1" xmlns="http://www.w3.org/2000/svg" xmlns:xlink="http://www.w3.org/1999/xlink" width="70" height="17" viewBox="0 0 70 17">
<path id="btn-main-contact" d="M67.634,16.386 C67.634,16.386 65.496,16.386 65.496,16.386 L65.496,14.838 C65.496,14.838 67.103,14.838 67.103,14.838 C67.377,14.838 67.514,14.730 67.514,14.496 C67.514,14.496 67.514,9.634 67.514,9.634 C67.514,9.634 65.307,9.634 65.307,9.634 C64.589,9.634 64.230,9.292 64.230,8.572 C64.230,8.572 64.230,0.704 64.230,0.704 L65.906,0.704 L69.105,0.704 C69.105,0.704 69.105,14.982 69.105,14.982 C69.105,15.918 68.609,16.386 67.634,16.386 zM67.514,2.108 L65.701,2.108 L65.701,4.359 L67.514,4.359 L67.514,2.108 zM67.514,5.763 L65.701,5.763 C65.701,5.763 65.701,7.744 65.701,7.744 C65.701,8.032 65.769,8.158 65.906,8.158 C65.906,8.158 67.514,8.158 67.514,8.158 L67.514,5.763 zM61.955,9.634 C61.955,9.634 60.159,9.634 60.159,9.634 L60.159,16.458 L58.551,16.458 L58.551,0.704 L63.289,0.704 C63.289,0.704 63.289,8.302 63.289,8.302 C63.289,9.202 62.844,9.634 61.955,9.634 zM61.835,2.108 L61.630,2.108 L60.159,2.108 L60.159,4.359 L61.835,4.359 L61.835,2.108 zM61.835,5.763 L60.159,5.763 L60.159,8.158 C60.159,8.158 61.493,8.158 61.493,8.158 C61.715,8.158 61.835,8.050 61.835,7.798 C61.835,7.798 61.835,5.763 61.835,5.763 zM56.875,16.602 L55.215,16.602 L55.215,6.465 L54.275,6.465 L54.275,4.647 C54.275,4.647 54.805,4.647 54.805,4.647 C54.976,4.647 55.130,4.413 55.250,3.927 C55.250,3.927 56.139,0.344 56.139,0.344 L57.884,0.344 L56.875,4.197 L56.875,16.602 zM45.383,14.622 C45.383,14.622 45.383,13.073 45.383,13.073 L43.912,13.073 L43.912,11.399 L45.383,11.399 L45.383,6.609 L41.893,6.609 L41.893,8.302 L43.775,8.302 L43.775,10.049 L41.893,10.049 C41.893,10.049 41.893,14.622 41.893,14.622 C41.893,15.738 41.295,16.314 40.097,16.314 C40.097,16.314 37.087,16.314 37.087,16.314 L37.087,14.550 C37.087,14.550 39.635,14.550 39.635,14.550 C39.892,14.550 40.029,14.442 40.029,14.208 C40.029,14.208 40.029,11.345 40.029,11.345 C40.029,11.345 39.276,12.209 39.276,12.209 C39.037,12.461 38.746,12.587 38.421,12.587 C38.421,12.587 36.488,12.587 36.488,12.587 L36.488,10.967 C36.488,10.967 37.617,10.967 37.617,10.967 C37.959,10.967 38.216,10.859 38.387,10.643 C38.387,10.643 39.977,8.662 39.977,8.662 C40.012,8.644 40.029,8.626 40.029,8.626 L40.029,6.609 L36.488,6.609 L36.488,4.845 L40.029,4.845 L40.029,3.098 L36.762,3.098 L36.762,1.406 C36.762,1.406 41.295,1.406 41.295,1.406 C41.534,1.406 41.722,1.082 41.842,0.416 C41.842,0.416 43.638,0.416 43.638,0.416 C43.587,1.424 43.416,2.126 43.142,2.522 C42.885,2.918 42.509,3.098 42.030,3.098 C42.030,3.098 41.893,3.098 41.893,3.098 L41.893,4.845 L45.383,4.845 L45.383,0.416 L47.247,0.416 L47.247,4.845 L51.387,4.845 L51.387,6.609 L47.247,6.609 L47.247,11.399 C47.247,11.399 48.376,11.399 48.376,11.399 C48.598,11.399 48.718,11.291 48.718,11.039 C48.718,11.039 48.718,7.600 48.718,7.600 L50.514,7.600 C50.514,7.600 50.514,11.471 50.514,11.471 C50.514,12.551 49.933,13.073 48.787,13.073 C48.787,13.073 47.247,13.073 47.247,13.073 C47.247,13.073 47.247,14.136 47.247,14.136 C47.247,14.460 47.418,14.622 47.777,14.622 C47.777,14.622 51.455,14.622 51.455,14.622 L51.455,16.314 C51.455,16.314 47.247,16.314 47.247,16.314 C45.998,16.314 45.383,15.738 45.383,14.622 zM48.376,2.882 C48.376,2.882 48.376,0.632 48.376,0.632 L49.984,0.632 C49.984,0.632 49.984,2.036 49.984,2.036 C49.984,2.234 50.087,2.324 50.326,2.324 C50.326,2.324 51.113,2.324 51.113,2.324 L51.113,3.729 C51.113,3.729 49.317,3.729 49.317,3.729 C48.684,3.729 48.376,3.459 48.376,2.882 zM30.265,8.446 C30.265,8.446 29.358,7.546 29.358,7.546 C29.358,7.546 28.588,8.410 28.588,8.410 C28.417,8.626 28.195,8.716 27.921,8.716 C27.921,8.716 25.509,8.716 25.509,8.716 L25.509,7.024 C25.509,7.024 27.254,7.024 27.254,7.024 C27.374,7.024 27.493,6.988 27.596,6.880 C27.596,6.880 28.126,6.303 28.126,6.303 L26.176,4.359 L28.520,4.359 L29.272,5.061 L31.462,2.666 L27.784,2.666 C27.784,2.666 27.630,3.080 27.630,3.080 C27.391,3.711 26.997,4.017 26.450,4.017 C26.450,4.017 25.321,4.017 25.321,4.017 L25.321,2.594 C25.321,2.594 25.783,2.594 25.783,2.594 C26.022,2.594 26.194,2.432 26.296,2.072 C26.296,2.072 26.843,0.272 26.843,0.272 L28.725,0.272 L28.366,1.190 L33.600,1.190 L33.600,2.810 L30.521,6.231 C30.521,6.231 31.017,6.700 31.017,6.700 C31.308,6.970 31.633,7.096 31.992,7.096 C31.992,7.096 33.600,7.096 33.600,7.096 L33.600,8.788 C33.600,8.788 31.068,8.788 31.068,8.788 C30.761,8.788 30.487,8.680 30.265,8.446 zM22.978,7.168 C23.149,7.168 23.251,7.078 23.251,6.898 C23.251,6.898 23.251,5.277 23.251,5.277 L24.705,5.277 C24.705,5.277 24.705,7.528 24.705,7.528 C24.705,7.780 24.603,8.014 24.397,8.266 C24.158,8.572 23.850,8.716 23.508,8.716 C23.508,8.716 22.704,8.716 22.704,8.716 L22.704,16.602 L21.113,16.602 L21.113,8.716 L18.633,8.716 C18.633,8.716 18.633,7.600 18.633,7.600 C18.633,7.402 18.821,7.114 19.198,6.754 C19.198,6.754 21.147,4.503 21.147,4.503 L18.975,4.503 C18.975,4.503 18.975,3.297 18.975,3.297 C18.975,3.188 19.026,3.080 19.163,2.954 C19.163,2.954 21.712,0.218 21.712,0.218 L23.508,0.218 L20.908,3.026 L22.430,3.026 L23.645,1.622 L25.578,1.622 L20.703,7.168 C20.703,7.168 22.978,7.168 22.978,7.168 zM19.026,13.776 C19.026,13.776 19.505,9.995 19.505,9.995 L20.840,9.995 C20.840,9.995 20.241,14.622 20.241,14.622 C20.070,15.702 19.694,16.242 19.095,16.242 C19.095,16.242 18.428,16.242 18.428,16.242 L18.428,14.550 C18.428,14.550 18.701,14.550 18.701,14.550 C18.838,14.550 18.941,14.298 19.026,13.776 zM15.283,9.004 C15.283,9.004 13.402,9.004 13.402,9.004 L13.402,11.885 C13.402,11.885 14.479,11.885 14.479,11.885 C14.616,11.885 14.684,11.813 14.684,11.669 C14.684,11.669 14.684,9.778 14.684,9.778 L15.950,9.778 C15.950,9.778 15.950,12.443 15.950,12.443 C15.950,12.965 15.694,13.217 15.215,13.217 C15.215,13.217 13.402,13.217 13.402,13.217 L13.402,16.530 L11.862,16.530 L11.862,9.004 L11.332,9.004 L11.332,7.168 L12.478,5.205 L11.263,5.205 L11.263,3.441 L13.213,0.416 L14.804,0.416 L12.871,3.801 C12.871,3.801 14.411,3.801 14.411,3.801 C14.496,3.801 14.548,3.783 14.548,3.729 C14.548,3.729 14.137,2.396 14.137,2.396 C14.137,2.396 15.471,2.396 15.471,2.396 C15.694,3.170 15.813,3.549 15.813,3.549 C15.831,3.585 15.848,3.657 15.882,3.801 C15.882,3.801 15.882,4.503 15.882,4.503 C15.882,4.971 15.608,5.205 15.078,5.205 C15.078,5.205 14.154,5.205 14.154,5.205 L12.940,7.600 C12.940,7.600 14.548,7.600 14.548,7.600 C14.633,7.600 14.684,7.582 14.684,7.528 C14.684,7.528 14.342,6.123 14.342,6.123 C14.342,6.123 15.677,6.123 15.677,6.123 C15.865,6.934 15.967,7.330 15.967,7.330 C15.967,7.366 15.984,7.456 16.019,7.600 C16.019,7.600 16.019,8.302 16.019,8.302 C16.019,8.770 15.762,9.004 15.283,9.004 zM10.460,15.054 C10.460,15.432 10.340,15.756 10.100,16.026 C9.895,16.260 9.621,16.386 9.262,16.386 C9.262,16.386 6.457,16.386 6.457,16.386 L6.457,14.982 C6.457,14.982 8.732,14.982 8.732,14.982 C8.903,14.982 8.988,14.784 8.988,14.352 C8.988,14.352 8.988,13.145 8.988,13.145 C8.988,13.145 7.261,13.145 7.261,13.145 C6.765,13.145 6.525,12.893 6.525,12.371 C6.525,12.371 6.525,9.778 6.525,9.778 L7.791,9.778 C7.791,9.778 7.791,11.597 7.791,11.597 C7.791,11.795 7.860,11.885 7.996,11.885 C7.996,11.885 8.988,11.885 8.988,11.885 L8.988,9.076 L6.183,9.076 L6.183,7.600 L7.500,5.205 L6.252,5.205 L6.252,3.585 L8.202,0.416 L9.792,0.416 L7.860,3.801 C7.860,3.801 9.467,3.801 9.467,3.801 C9.553,3.801 9.604,3.783 9.604,3.729 C9.604,3.729 9.262,2.396 9.262,2.396 C9.262,2.396 10.596,2.396 10.596,2.396 C10.785,3.170 10.887,3.549 10.887,3.549 C10.887,3.585 10.904,3.657 10.938,3.801 C10.938,3.801 10.938,4.503 10.938,4.503 C10.938,4.971 10.665,5.205 10.135,5.205 C10.135,5.205 9.125,5.205 9.125,5.205 L7.791,7.672 C7.791,7.672 9.467,7.672 9.467,7.672 C9.553,7.672 9.604,7.654 9.604,7.600 C9.604,7.600 9.194,6.123 9.194,6.123 C9.194,6.123 10.528,6.123 10.528,6.123 C10.750,6.970 10.870,7.384 10.870,7.384 C10.887,7.420 10.904,7.510 10.938,7.672 C10.938,7.672 10.938,8.374 10.938,8.374 C10.938,8.770 10.767,8.986 10.460,9.040 C10.460,9.040 10.460,15.054 10.460,15.054 zM5.790,16.602 L4.387,16.602 L4.387,15.180 L0.436,15.468 L0.436,13.992 L1.171,13.938 L1.171,2.324 L0.641,2.324 L0.641,0.848 L6.594,0.848 L6.594,2.324 L5.790,2.324 L5.790,16.602 zM4.387,2.324 L2.574,2.324 L2.574,5.349 L4.387,5.349 L4.387,2.324 zM4.387,6.754 L2.574,6.754 L2.574,9.634 L4.387,9.634 L4.387,6.754 zM4.387,11.039 L2.574,11.039 L2.574,13.830 L4.387,13.704 L4.387,11.039 zM24.842,14.064 C24.876,14.388 24.962,14.550 25.116,14.550 C25.116,14.550 25.321,14.550 25.321,14.550 L25.321,16.098 C25.321,16.098 24.380,16.098 24.380,16.098 C23.901,16.098 23.645,15.648 23.576,14.766 C23.576,14.766 22.978,9.995 22.978,9.995 L24.244,9.995 C24.244,9.995 24.842,14.064 24.842,14.064 zM33.207,14.982 C33.207,15.720 32.779,16.098 31.924,16.098 C31.924,16.098 26.176,16.098 26.176,16.098 L26.176,9.850 L33.207,9.850 C33.207,9.850 33.207,14.982 33.207,14.982 zM31.462,11.255 L27.853,11.255 L27.853,14.622 C27.853,14.622 31.000,14.622 31.000,14.622 C31.308,14.622 31.462,14.496 31.462,14.208 C31.462,14.208 31.462,11.255 31.462,11.255 z" fill="#FF8A00" />
</svg>
