<svg version="1.1" xmlns="http://www.w3.org/2000/svg" xmlns:xlink="http://www.w3.org/1999/xlink" width="70" height="17" viewBox="0 0 70 17">
<path id="btn-main-news-no" d="M68.369,16.242 C67.685,16.242 67.240,15.846 67.035,15.054 C67.035,15.054 66.111,11.327 66.111,11.327 L67.976,11.327 C67.976,11.327 68.677,14.046 68.677,14.046 C68.763,14.388 68.899,14.550 69.105,14.550 C69.105,14.550 69.515,14.550 69.515,14.550 L69.515,16.242 C69.515,16.242 68.369,16.242 68.369,16.242 zM66.642,10.481 C66.642,10.481 55.677,10.481 55.677,10.481 L55.677,1.406 L58.910,1.406 L59.286,0.272 L61.886,0.272 L61.510,1.406 L68.044,1.406 C68.044,1.406 68.044,9.274 68.044,9.274 C68.044,10.085 67.565,10.481 66.642,10.481 zM66.163,2.810 L57.559,2.810 L57.559,4.071 L66.163,4.071 L66.163,2.810 zM66.163,5.421 L57.559,5.421 L57.559,6.609 L66.163,6.609 L66.163,5.421 zM66.163,7.942 L57.559,7.942 L57.559,9.076 C57.559,9.076 65.769,9.076 65.769,9.076 C66.026,9.076 66.163,8.914 66.163,8.572 C66.163,8.572 66.163,7.942 66.163,7.942 zM56.567,15.072 C56.361,15.936 55.865,16.386 55.079,16.386 C55.079,16.386 54.138,16.386 54.138,16.386 L54.138,14.766 C54.138,14.766 54.480,14.766 54.480,14.766 C54.634,14.766 54.771,14.586 54.890,14.190 C54.890,14.190 55.472,11.327 55.472,11.327 L57.354,11.327 C57.354,11.327 56.567,15.072 56.567,15.072 zM49.248,4.503 C49.248,4.503 47.983,4.503 47.983,4.503 L47.983,2.954 C47.983,2.954 48.513,2.954 48.513,2.954 C48.735,2.954 48.889,2.774 48.992,2.414 C48.992,2.414 49.522,0.632 49.522,0.632 L51.455,0.632 C51.455,0.632 50.394,3.531 50.394,3.531 C50.155,4.179 49.779,4.503 49.248,4.503 zM51.181,14.838 C51.181,15.864 50.600,16.386 49.454,16.386 C49.454,16.386 46.785,16.386 46.785,16.386 L46.785,14.766 C46.785,14.766 48.975,14.766 48.975,14.766 C49.197,14.766 49.317,14.676 49.317,14.496 C49.317,14.496 49.317,13.145 49.317,13.145 L43.775,13.145 L43.775,16.458 L41.893,16.458 L41.893,5.349 L45.502,5.349 L45.502,0.416 L47.316,0.416 L47.316,5.349 L51.181,5.349 C51.181,5.349 51.181,14.838 51.181,14.838 zM49.317,6.970 L43.775,6.970 L43.775,8.572 L49.317,8.572 L49.317,6.970 zM49.317,9.995 L43.775,9.995 L43.775,11.741 L49.317,11.741 L49.317,9.995 zM42.475,3.477 C42.475,3.477 41.431,0.632 41.431,0.632 L43.364,0.632 C43.364,0.632 43.860,2.360 43.860,2.360 C43.963,2.720 44.151,2.882 44.442,2.882 C44.442,2.882 44.767,2.882 44.767,2.882 L44.767,4.431 C44.767,4.431 43.501,4.431 43.501,4.431 C43.091,4.431 42.749,4.125 42.475,3.477 zM37.617,8.716 C37.617,8.716 36.830,5.835 36.830,5.835 L38.695,5.835 C38.695,5.835 39.225,7.600 39.225,7.600 C39.276,7.888 39.413,8.014 39.635,8.014 C39.635,8.014 41.158,8.014 41.158,8.014 L41.158,9.634 C41.158,9.634 38.695,9.634 38.695,9.634 C38.130,9.634 37.771,9.328 37.617,8.716 zM37.754,3.945 C37.754,3.945 36.830,0.776 36.830,0.776 L38.695,0.776 C38.695,0.776 39.362,2.810 39.362,2.810 C39.396,3.098 39.533,3.242 39.755,3.242 C39.755,3.242 41.158,3.242 41.158,3.242 L41.158,4.845 C41.158,4.845 38.831,4.845 38.831,4.845 C38.250,4.845 37.891,4.557 37.754,3.945 zM38.233,14.046 C38.233,14.046 38.968,10.823 38.968,10.823 L40.833,10.823 C40.833,10.823 39.960,14.892 39.960,14.892 C39.721,15.828 39.174,16.314 38.284,16.314 C38.284,16.314 36.351,16.314 36.351,16.314 L36.351,14.694 C36.351,14.694 37.685,14.694 37.685,14.694 C37.891,14.694 38.079,14.478 38.233,14.046 zM33.001,16.602 L31.257,16.602 L31.257,6.393 L29.118,6.393 C29.118,6.393 29.118,14.838 29.118,14.838 C29.118,15.810 28.640,16.314 27.716,16.314 C27.716,16.314 26.912,16.314 26.912,16.314 L26.912,14.622 C26.912,14.622 27.168,14.622 27.168,14.622 C27.305,14.622 27.391,14.568 27.391,14.424 C27.391,14.424 27.391,1.118 27.391,1.118 C27.391,1.118 31.462,1.118 31.462,1.118 C31.770,1.118 31.924,0.830 31.924,0.218 C31.924,0.218 33.600,0.218 33.600,0.218 C33.600,0.218 33.600,1.244 33.600,1.244 C33.600,2.252 33.104,2.738 32.129,2.738 C32.129,2.738 29.118,2.738 29.118,2.738 L29.118,4.845 L33.942,4.845 L33.942,6.393 L33.001,6.393 L33.001,16.602 zM23.371,8.644 L26.518,8.644 L26.518,10.265 L23.371,10.265 L23.371,16.602 L21.780,16.602 L21.780,10.265 L18.701,10.265 L18.701,8.644 L21.780,8.644 L21.780,6.970 L18.428,6.970 L18.428,5.493 L19.899,5.493 L19.095,3.369 L20.840,3.369 L21.644,5.493 L23.525,5.493 L24.380,3.369 L26.125,3.369 L25.270,5.493 L26.843,5.493 L26.843,6.970 L23.371,6.970 L23.371,8.644 zM18.565,1.334 L21.575,1.334 L21.575,0.218 L23.508,0.218 L23.508,1.334 L26.655,1.334 L26.655,2.810 L18.565,2.810 L18.565,1.334 zM7.928,16.602 L6.252,16.602 L6.252,15.504 L0.710,15.756 L0.710,14.352 L1.719,14.298 L1.719,8.374 L0.573,8.374 L0.573,6.898 L15.950,6.898 L15.950,8.374 L7.928,8.374 L7.928,16.602 zM6.252,8.374 L3.378,8.374 L3.378,9.490 L6.252,9.490 L6.252,8.374 zM6.252,10.625 L3.378,10.625 L3.378,11.741 L6.252,11.741 L6.252,10.625 zM6.252,12.875 L3.378,12.875 L3.378,14.226 L6.252,14.100 L6.252,12.875 zM13.881,6.051 C13.881,6.051 1.856,6.051 1.856,6.051 L1.856,0.632 L15.146,0.632 C15.146,0.632 15.146,5.133 15.146,5.133 C15.146,5.745 14.719,6.051 13.881,6.051 zM13.402,1.892 L3.583,1.892 L3.583,2.738 L13.402,2.738 L13.402,1.892 zM13.402,3.873 L3.583,3.873 L3.583,4.773 C3.583,4.773 12.940,4.773 12.940,4.773 C13.248,4.773 13.402,4.665 13.402,4.431 C13.402,4.431 13.402,3.873 13.402,3.873 zM15.745,10.895 L13.316,14.064 C13.316,14.064 13.573,14.352 13.573,14.352 C13.846,14.676 14.171,14.838 14.548,14.838 C14.548,14.838 15.813,14.838 15.813,14.838 L15.813,16.314 C15.813,16.314 13.607,16.314 13.607,16.314 C13.299,16.314 13.042,16.188 12.820,15.936 C12.820,15.936 12.324,15.378 12.324,15.378 C12.324,15.378 12.016,15.774 12.016,15.774 C11.777,16.080 11.417,16.242 10.938,16.242 C10.938,16.242 8.595,16.242 8.595,16.242 L8.595,14.838 C8.595,14.838 10.066,14.838 10.066,14.838 C10.374,14.838 10.596,14.748 10.750,14.550 C10.750,14.550 11.144,14.046 11.144,14.046 L8.869,11.471 L11.075,11.471 L12.170,12.749 L13.744,10.769 L8.527,10.769 L8.527,9.274 L15.745,9.274 L15.745,10.895 zM19.146,13.758 C19.146,13.758 19.574,11.183 19.574,11.183 L21.165,11.183 C21.165,11.183 20.549,14.730 20.549,14.730 C20.378,15.558 19.984,15.972 19.369,15.972 C19.369,15.972 18.496,15.972 18.496,15.972 L18.496,14.280 C18.496,14.280 18.838,14.280 18.838,14.280 C18.941,14.280 19.044,14.118 19.146,13.758 zM25.988,13.632 C26.022,13.920 26.074,14.064 26.176,14.064 C26.176,14.064 26.724,14.064 26.724,14.064 L26.724,15.756 C26.724,15.756 25.578,15.756 25.578,15.756 C25.116,15.756 24.825,15.396 24.688,14.694 C24.688,14.694 24.038,11.399 24.038,11.399 L25.646,11.399 C25.646,11.399 25.988,13.632 25.988,13.632 zM61.630,13.019 C61.630,13.019 61.630,11.327 61.630,11.327 L63.494,11.327 C63.494,11.327 63.494,12.173 63.494,12.173 C63.494,12.353 63.597,12.443 63.836,12.443 C63.836,12.443 65.034,12.443 65.034,12.443 L65.034,13.848 C65.034,13.848 62.690,13.848 62.690,13.848 C61.972,13.848 61.630,13.578 61.630,13.019 zM60.364,14.424 C60.364,14.712 60.535,14.838 60.894,14.838 C60.894,14.838 66.043,14.838 66.043,14.838 L66.043,16.386 C66.043,16.386 60.364,16.386 60.364,16.386 C59.064,16.386 58.414,15.864 58.414,14.838 C58.414,14.838 58.414,11.327 58.414,11.327 L60.364,11.327 C60.364,11.327 60.364,14.424 60.364,14.424 z" fill="#404040" />
</svg>
