<svg version="1.1" xmlns="http://www.w3.org/2000/svg" xmlns:xlink="http://www.w3.org/1999/xlink" width="69" height="17" viewBox="0 0 69 17">
<path id="btn-main-about-h" d="M56.867,14.550 L56.285,15.396 C56.285,15.396 66.103,15.396 66.103,15.396 C66.240,15.396 66.309,15.342 66.309,15.270 C66.309,15.270 65.967,14.766 65.967,14.766 C65.967,14.766 67.780,14.766 67.780,14.766 C67.951,15.108 68.053,15.288 68.053,15.288 C68.071,15.288 68.088,15.324 68.105,15.396 C68.105,15.396 68.105,16.008 68.105,16.008 C68.105,16.404 67.763,16.602 67.113,16.602 C67.113,16.602 54.215,16.602 54.215,16.602 L54.215,15.270 L54.746,14.550 L53.138,14.550 L53.138,13.362 L68.584,13.362 L68.584,14.550 L56.867,14.550 zM66.172,9.850 C66.172,9.850 66.172,5.133 66.172,5.133 L65.197,5.133 L64.992,7.528 L65.778,7.528 L65.778,8.860 L64.889,8.860 C64.889,8.860 64.855,9.220 64.855,9.220 C64.735,10.391 64.410,10.967 63.897,10.967 C63.897,10.967 61.896,10.967 61.896,10.967 L61.896,9.562 C61.896,9.562 62.973,9.562 62.973,9.562 C63.144,9.562 63.247,9.328 63.315,8.860 C63.315,8.860 62.836,8.860 62.836,8.860 C62.443,8.860 62.203,8.608 62.101,8.086 C62.101,8.086 61.622,5.763 61.622,5.763 L62.973,5.763 C62.973,5.763 63.161,7.168 63.161,7.168 C63.196,7.384 63.298,7.510 63.435,7.510 C63.435,7.510 63.606,5.133 63.606,5.133 L61.690,5.133 L61.690,3.657 L63.709,3.657 L63.760,2.954 L65.368,2.954 L65.317,3.657 L67.780,3.657 C67.780,3.657 67.780,9.148 67.780,9.148 C67.780,9.382 67.865,9.490 68.036,9.490 C68.036,9.490 68.584,9.490 68.584,9.490 L68.584,10.967 C68.584,10.967 67.249,10.967 67.249,10.967 C66.531,10.967 66.172,10.607 66.172,9.850 zM67.917,12.731 L53.873,12.731 L53.873,11.597 L67.917,11.597 L67.917,12.731 zM53.275,9.850 L56.354,9.850 L56.354,9.220 L53.685,9.220 L53.685,8.086 L56.354,8.086 L56.354,7.672 L58.218,7.672 L58.218,8.086 L61.023,8.086 L61.023,9.220 L58.218,9.220 L58.218,9.850 L61.434,9.850 L61.434,11.039 L53.275,11.039 L53.275,9.850 zM66.103,2.738 L64.102,2.738 L64.102,2.180 L57.414,2.180 L57.414,2.666 L58.218,2.666 L58.218,3.098 L61.023,3.098 L61.023,4.215 L58.218,4.215 L58.218,4.845 L61.365,4.845 L61.365,6.051 L59.689,6.051 C59.689,6.051 59.689,6.465 59.689,6.465 C59.689,6.609 59.775,6.682 59.963,6.682 C59.963,6.682 61.365,6.682 61.365,6.682 L61.365,7.744 C61.365,7.744 59.022,7.744 59.022,7.744 C58.389,7.744 58.081,7.528 58.081,7.096 C58.081,7.096 58.081,6.051 58.081,6.051 L56.798,6.051 C56.798,6.051 56.182,7.150 56.182,7.150 C55.977,7.546 55.618,7.744 55.139,7.744 C55.139,7.744 53.275,7.744 53.275,7.744 L53.275,6.682 C53.275,6.682 54.472,6.682 54.472,6.682 C54.660,6.682 54.797,6.591 54.900,6.375 C54.900,6.375 55.054,6.051 55.054,6.051 L53.275,6.051 L53.275,4.845 L56.354,4.845 L56.354,4.215 L53.685,4.215 L53.685,3.098 L56.354,3.098 L56.354,2.738 L55.413,2.738 L55.413,2.180 L53.206,2.180 L53.206,0.776 L55.413,0.776 L55.413,0.344 L57.414,0.344 L57.414,0.776 L64.102,0.776 L64.102,0.344 L66.103,0.344 L66.103,0.776 L68.515,0.776 L68.515,2.180 L66.103,2.180 L66.103,2.738 zM41.834,6.123 L43.373,6.123 L43.373,3.945 L42.039,3.945 L42.039,2.468 L43.373,2.468 L43.373,0.416 L44.981,0.416 L44.981,2.468 L47.513,2.468 L47.513,0.416 L49.121,0.416 L49.121,2.468 L50.455,2.468 L50.455,3.945 L49.121,3.945 L49.121,6.123 L50.660,6.123 L50.660,7.672 L41.834,7.672 L41.834,6.123 zM44.981,6.123 L47.513,6.123 L47.513,3.945 L44.981,3.945 L44.981,6.123 zM40.295,16.170 C40.295,16.170 35.283,16.170 35.283,16.170 L35.283,14.550 L37.763,14.550 L37.763,11.813 L35.488,11.813 L35.488,1.820 L37.558,1.820 L37.763,1.820 L37.763,0.416 L39.097,0.416 L39.097,1.820 L41.304,1.820 C41.304,1.820 41.304,10.337 41.304,10.337 C41.304,11.327 40.910,11.813 40.158,11.813 C40.158,11.813 39.097,11.813 39.097,11.813 L39.097,14.550 C39.097,14.550 39.970,14.550 39.970,14.550 C40.141,14.550 40.226,14.460 40.226,14.280 C40.226,14.280 40.226,12.587 40.226,12.587 L41.629,12.587 C41.629,12.587 41.629,14.622 41.629,14.622 C41.629,15.648 41.184,16.170 40.295,16.170 zM37.763,3.513 L36.822,3.513 L36.822,10.121 L37.558,10.121 L37.763,10.121 L37.763,3.513 zM39.696,10.121 C39.867,10.121 39.970,10.013 39.970,9.778 C39.970,9.778 39.970,3.513 39.970,3.513 L39.097,3.513 L39.097,10.121 C39.097,10.121 39.696,10.121 39.696,10.121 zM30.736,4.431 C30.736,4.431 29.658,2.522 29.658,2.522 L28.461,2.522 C28.461,2.522 27.332,4.431 27.332,4.431 C27.109,4.809 26.836,4.989 26.528,4.989 C26.528,4.989 25.057,4.989 25.057,4.989 L25.057,3.297 C25.057,3.297 25.792,3.297 25.792,3.297 C25.963,3.297 26.117,3.098 26.288,2.666 C26.288,2.666 27.195,0.848 27.195,0.848 L30.924,0.848 C30.924,0.848 31.779,2.666 31.779,2.666 C31.933,3.098 32.087,3.297 32.258,3.297 C32.258,3.297 32.942,3.297 32.942,3.297 L32.942,4.989 C32.942,4.989 31.539,4.989 31.539,4.989 C31.214,4.989 30.941,4.809 30.736,4.431 zM20.455,5.619 L24.390,5.619 C24.390,5.619 24.390,14.838 24.390,14.838 C24.390,15.774 23.876,16.242 22.850,16.242 C22.850,16.242 20.900,16.242 20.900,16.242 L20.900,14.622 C20.900,14.622 22.303,14.622 22.303,14.622 C22.576,14.622 22.713,14.514 22.713,14.280 C22.713,14.280 22.713,7.312 22.713,7.312 L20.387,7.312 C20.387,7.312 20.079,14.118 20.079,14.118 C20.045,14.856 19.874,15.378 19.583,15.738 C19.258,16.116 18.882,16.314 18.437,16.314 C18.437,16.314 17.428,16.314 17.428,16.314 L17.428,14.694 C17.428,14.694 17.975,14.694 17.975,14.694 C18.249,14.694 18.386,14.388 18.420,13.776 C18.420,13.776 18.865,3.801 18.865,3.801 L17.428,3.801 L17.428,2.108 L20.165,2.108 L20.165,0.416 L22.183,0.416 L22.183,2.108 L24.920,2.108 L24.920,3.801 L20.541,3.801 L20.455,5.619 zM12.607,16.386 C12.607,16.386 10.811,16.386 10.811,16.386 L10.811,14.982 C10.811,14.982 12.077,14.982 12.077,14.982 C12.333,14.982 12.470,14.892 12.470,14.694 C12.470,14.694 12.470,6.754 12.470,6.754 C12.470,6.754 8.929,6.754 8.929,6.754 C8.177,6.754 7.800,6.429 7.800,5.763 C7.800,5.763 7.800,0.632 7.800,0.632 L9.733,0.632 L14.078,0.632 C14.078,0.632 14.078,15.126 14.078,15.126 C14.078,15.954 13.582,16.386 12.607,16.386 zM12.470,1.964 L9.408,1.964 L9.408,3.026 L12.470,3.026 L12.470,1.964 zM12.470,4.287 L9.408,4.287 C9.408,4.287 9.408,5.061 9.408,5.061 C9.408,5.313 9.460,5.421 9.596,5.421 C9.596,5.421 12.470,5.421 12.470,5.421 L12.470,4.287 zM10.007,7.168 L9.066,8.644 C9.066,8.644 10.811,8.644 10.811,8.644 C10.879,8.644 10.931,8.626 10.931,8.572 C10.931,8.572 10.674,7.798 10.674,7.798 C10.674,7.798 11.735,7.798 11.735,7.798 C11.871,8.266 11.957,8.500 11.957,8.500 C11.957,8.518 11.974,8.572 12.008,8.644 C12.008,8.644 12.008,9.184 12.008,9.184 C12.008,9.544 11.735,9.706 11.204,9.706 C11.204,9.706 10.007,9.706 10.007,9.706 L9.066,10.967 C9.066,10.967 10.811,10.967 10.811,10.967 C10.879,10.967 10.931,10.949 10.931,10.895 C10.931,10.895 10.742,10.121 10.742,10.121 C10.742,10.121 11.803,10.121 11.803,10.121 C11.906,10.589 11.974,10.805 11.974,10.805 C11.974,10.841 11.991,10.895 12.008,10.967 C12.008,10.967 12.008,11.507 12.008,11.507 C12.008,11.867 11.735,12.029 11.204,12.029 C11.204,12.029 9.528,12.029 9.528,12.029 L9.528,13.217 C9.528,13.217 10.263,13.217 10.263,13.217 C10.400,13.217 10.469,13.163 10.469,13.019 C10.469,13.019 10.469,12.443 10.469,12.443 L11.598,12.443 C11.598,12.443 11.598,13.722 11.598,13.722 C11.598,14.154 11.375,14.352 10.931,14.352 C10.931,14.352 9.528,14.352 9.528,14.352 L9.528,16.458 L8.057,16.458 L8.057,12.029 L7.458,12.029 L7.458,10.769 L8.331,9.706 L7.458,9.706 L7.458,8.374 L8.399,7.168 L10.007,7.168 zM6.466,12.029 C6.466,12.029 6.466,15.126 6.466,15.126 C6.466,15.468 6.346,15.756 6.141,16.008 C5.953,16.206 5.696,16.314 5.389,16.314 C5.389,16.314 2.652,16.314 2.652,16.314 L2.652,15.198 C2.652,15.198 4.858,15.198 4.858,15.198 C5.029,15.198 5.132,14.982 5.132,14.550 C5.132,14.550 5.132,14.208 5.132,14.208 L3.045,14.208 L3.045,12.515 L4.191,12.515 L4.191,13.145 L5.132,13.145 L5.132,12.029 L2.583,12.029 L2.583,10.697 L3.610,9.706 L2.583,9.706 L2.583,8.446 L3.781,7.168 L5.389,7.168 L4.191,8.644 C4.191,8.644 5.799,8.644 5.799,8.644 C5.867,8.644 5.919,8.626 5.919,8.572 C5.919,8.572 5.799,7.798 5.799,7.798 C5.799,7.798 6.860,7.798 6.860,7.798 C6.928,8.266 6.962,8.500 6.962,8.500 C6.962,8.518 6.979,8.572 6.996,8.644 C6.996,8.644 6.996,9.184 6.996,9.184 C6.996,9.544 6.723,9.706 6.192,9.706 C6.192,9.706 5.303,9.706 5.303,9.706 L4.191,10.967 C4.191,10.967 5.919,10.967 5.919,10.967 C6.004,10.967 6.056,10.949 6.056,10.895 C6.056,10.895 5.850,10.121 5.850,10.121 C5.850,10.121 6.928,10.121 6.928,10.121 C7.031,10.589 7.099,10.805 7.099,10.805 C7.099,10.841 7.116,10.895 7.133,10.967 C7.133,10.967 7.133,11.507 7.133,11.507 C7.133,11.831 6.911,12.011 6.466,12.029 zM5.252,6.754 C5.252,6.754 1.916,6.754 1.916,6.754 L1.916,16.674 L0.308,16.674 L0.308,0.632 L6.654,0.632 C6.654,0.632 6.654,5.547 6.654,5.547 C6.654,6.357 6.175,6.754 5.252,6.754 zM5.064,1.964 L4.927,1.964 L1.916,1.964 L1.916,3.098 L5.064,3.098 L5.064,1.964 zM5.064,4.359 L1.916,4.359 L1.916,5.421 C1.916,5.421 4.721,5.421 4.721,5.421 C4.944,5.421 5.064,5.331 5.064,5.133 C5.064,5.133 5.064,4.359 5.064,4.359 zM28.666,8.086 C28.700,8.410 28.837,8.572 29.059,8.572 C29.059,8.572 32.258,8.572 32.258,8.572 L32.258,10.265 C32.258,10.265 28.118,10.265 28.118,10.265 C27.520,10.265 27.143,9.940 26.990,9.274 C26.990,9.274 26.117,5.907 26.117,5.907 L28.050,5.907 C28.050,5.907 28.666,8.086 28.666,8.086 zM28.717,13.776 C28.768,14.118 28.905,14.280 29.128,14.280 C29.128,14.280 32.395,14.280 32.395,14.280 L32.395,15.972 C32.395,15.972 28.187,15.972 28.187,15.972 C27.571,15.972 27.195,15.630 27.058,14.982 C27.058,14.982 26.117,11.399 26.117,11.399 L28.050,11.399 C28.050,11.399 28.717,13.776 28.717,13.776 zM49.788,15.198 C49.788,15.846 49.412,16.170 48.659,16.170 C48.659,16.170 42.706,16.170 42.706,16.170 L42.706,9.148 L49.788,9.148 C49.788,9.148 49.788,15.198 49.788,15.198 zM48.180,10.553 L44.314,10.553 L44.314,11.957 L48.180,11.957 L48.180,10.553 zM48.180,13.362 L44.314,13.362 L44.314,14.766 C44.314,14.766 47.787,14.766 47.787,14.766 C48.043,14.766 48.180,14.658 48.180,14.424 C48.180,14.424 48.180,13.362 48.180,13.362 z" fill="#FF8A00" />
</svg>
